<svg id="visual" viewBox="0 0 960 540" width="960" height="540" xmlns="http://www.w3.org/2000/svg" xmlns:xlink="http://www.w3.org/1999/xlink" version="1.1"><g stroke-width="1" stroke-linejoin="bevel"><path d="M511.3 266L522.3 209L403.7 259Z" fill="#050505" stroke="#050505"></path><path d="M522.3 209L434.7 147L403.7 259Z" fill="#1b1b1b" stroke="#1b1b1b"></path><path d="M293 147L320 303L403.7 259Z" fill="#0e0e0e" stroke="#0e0e0e"></path><path d="M403.7 259L401.7 391L511.3 266Z" fill="#1b1b1b" stroke="#1b1b1b"></path><path d="M604 346L611 306L511.3 266Z" fill="#181818" stroke="#181818"></path><path d="M511.3 266L611 306L522.3 209Z" fill="#050505" stroke="#050505"></path><path d="M551.3 63L391.7 68L434.7 147Z" fill="#1d1d1d" stroke="#1d1d1d"></path><path d="M434.7 147L313 128L403.7 259Z" fill="#0a0a0a" stroke="#0a0a0a"></path><path d="M320 303L401.7 391L403.7 259Z" fill="#1d1d1d" stroke="#1d1d1d"></path><path d="M391.7 68L313 128L434.7 147Z" fill="#1b1b1b" stroke="#1b1b1b"></path><path d="M313 128L293 147L403.7 259Z" fill="#050505" stroke="#050505"></path><path d="M401.7 391L561.3 382L511.3 266Z" fill="#050505" stroke="#050505"></path><path d="M561.3 382L604 346L511.3 266Z" fill="#0e0e0e" stroke="#0e0e0e"></path><path d="M609 66L551.3 63L522.3 209Z" fill="#232323" stroke="#232323"></path><path d="M522.3 209L551.3 63L434.7 147Z" fill="#1d1d1d" stroke="#1d1d1d"></path><path d="M769.7 203L678 213L780.7 240Z" fill="#151515" stroke="#151515"></path><path d="M611 306L678 213L522.3 209Z" fill="#121212" stroke="#121212"></path><path d="M678 213L609 66L522.3 209Z" fill="#181818" stroke="#181818"></path><path d="M320 303L355 419L401.7 391Z" fill="#0a0a0a" stroke="#0a0a0a"></path><path d="M401.7 391L454.7 451L561.3 382Z" fill="#181818" stroke="#181818"></path><path d="M355 419L454.7 451L401.7 391Z" fill="#1b1b1b" stroke="#1b1b1b"></path><path d="M551.3 63L415.7 0L391.7 68Z" fill="#202020" stroke="#202020"></path><path d="M316 0L246.3 115L313 128Z" fill="#181818" stroke="#181818"></path><path d="M313 128L246.3 115L293 147Z" fill="#181818" stroke="#181818"></path><path d="M571.3 0L415.7 0L551.3 63Z" fill="#1b1b1b" stroke="#1b1b1b"></path><path d="M320 303L293 388L355 419Z" fill="#151515" stroke="#151515"></path><path d="M214.3 386L293 388L320 303Z" fill="#121212" stroke="#121212"></path><path d="M316 0L313 128L391.7 68Z" fill="#000000" stroke="#000000"></path><path d="M190.3 202L198.3 281L320 303Z" fill="#181818" stroke="#181818"></path><path d="M609 66L571.3 0L551.3 63Z" fill="#121212" stroke="#121212"></path><path d="M454.7 451L557.3 470L561.3 382Z" fill="#121212" stroke="#121212"></path><path d="M561.3 382L603 488L604 346Z" fill="#0a0a0a" stroke="#0a0a0a"></path><path d="M780.7 240L678 213L611 306Z" fill="#151515" stroke="#151515"></path><path d="M190.3 202L320 303L293 147Z" fill="#0a0a0a" stroke="#0a0a0a"></path><path d="M415.7 0L316 0L391.7 68Z" fill="#000000" stroke="#000000"></path><path d="M145.7 179L190.3 202L246.3 115Z" fill="#202020" stroke="#202020"></path><path d="M246.3 115L190.3 202L293 147Z" fill="#1d1d1d" stroke="#1d1d1d"></path><path d="M198.3 281L214.3 386L320 303Z" fill="#1b1b1b" stroke="#1b1b1b"></path><path d="M293 388L290 540L355 419Z" fill="#121212" stroke="#121212"></path><path d="M404.7 540L493.3 540L454.7 451Z" fill="#121212" stroke="#121212"></path><path d="M678 213L727.7 99L609 66Z" fill="#000000" stroke="#000000"></path><path d="M609 66L669 0L571.3 0Z" fill="#0a0a0a" stroke="#0a0a0a"></path><path d="M493.3 540L603 488L557.3 470Z" fill="#181818" stroke="#181818"></path><path d="M557.3 470L603 488L561.3 382Z" fill="#181818" stroke="#181818"></path><path d="M678 213L769.7 203L727.7 99Z" fill="#121212" stroke="#121212"></path><path d="M727.7 99L669 0L609 66Z" fill="#232323" stroke="#232323"></path><path d="M780.7 240L611 306L772.7 398Z" fill="#0a0a0a" stroke="#0a0a0a"></path><path d="M127.7 368L214.3 386L198.3 281Z" fill="#181818" stroke="#181818"></path><path d="M127.7 368L207.3 412L214.3 386Z" fill="#151515" stroke="#151515"></path><path d="M214.3 386L207.3 412L293 388Z" fill="#232323" stroke="#232323"></path><path d="M454.7 451L493.3 540L557.3 470Z" fill="#000000" stroke="#000000"></path><path d="M404.7 540L454.7 451L355 419Z" fill="#121212" stroke="#121212"></path><path d="M89.7 57L145.7 179L246.3 115Z" fill="#151515" stroke="#151515"></path><path d="M190.3 202L131.7 291L198.3 281Z" fill="#050505" stroke="#050505"></path><path d="M290 540L404.7 540L355 419Z" fill="#0a0a0a" stroke="#0a0a0a"></path><path d="M772.7 398L611 306L604 346Z" fill="#151515" stroke="#151515"></path><path d="M145.7 179L131.7 291L190.3 202Z" fill="#000000" stroke="#000000"></path><path d="M860.3 87L709.7 0L727.7 99Z" fill="#121212" stroke="#121212"></path><path d="M727.7 99L709.7 0L669 0Z" fill="#000000" stroke="#000000"></path><path d="M860.3 87L727.7 99L769.7 203Z" fill="#000000" stroke="#000000"></path><path d="M207.3 412L290 540L293 388Z" fill="#1d1d1d" stroke="#1d1d1d"></path><path d="M603 488L772.7 398L604 346Z" fill="#0e0e0e" stroke="#0e0e0e"></path><path d="M316 0L180.3 0L246.3 115Z" fill="#0e0e0e" stroke="#0e0e0e"></path><path d="M131.7 291L127.7 368L198.3 281Z" fill="#202020" stroke="#202020"></path><path d="M207.3 412L184.3 540L290 540Z" fill="#0e0e0e" stroke="#0e0e0e"></path><path d="M493.3 540L643 540L603 488Z" fill="#1d1d1d" stroke="#1d1d1d"></path><path d="M603 488L762.7 477L772.7 398Z" fill="#050505" stroke="#050505"></path><path d="M643 540L762.7 477L603 488Z" fill="#232323" stroke="#232323"></path><path d="M180.3 0L89.7 57L246.3 115Z" fill="#0e0e0e" stroke="#0e0e0e"></path><path d="M145.7 179L0 259L131.7 291Z" fill="#050505" stroke="#050505"></path><path d="M0 364L95.7 442L127.7 368Z" fill="#1d1d1d" stroke="#1d1d1d"></path><path d="M180.3 0L119.7 0L89.7 57Z" fill="#121212" stroke="#121212"></path><path d="M95.7 442L184.3 540L207.3 412Z" fill="#1b1b1b" stroke="#1b1b1b"></path><path d="M772.7 398L870.3 303L780.7 240Z" fill="#0a0a0a" stroke="#0a0a0a"></path><path d="M889.3 148L860.3 87L769.7 203Z" fill="#0e0e0e" stroke="#0e0e0e"></path><path d="M866.3 391L870.3 303L772.7 398Z" fill="#0a0a0a" stroke="#0a0a0a"></path><path d="M0 364L127.7 368L131.7 291Z" fill="#050505" stroke="#050505"></path><path d="M127.7 368L95.7 442L207.3 412Z" fill="#000000" stroke="#000000"></path><path d="M889.3 148L769.7 203L780.7 240Z" fill="#0e0e0e" stroke="#0e0e0e"></path><path d="M643 540L758.7 540L762.7 477Z" fill="#232323" stroke="#232323"></path><path d="M868.3 456L866.3 391L772.7 398Z" fill="#000000" stroke="#000000"></path><path d="M870.3 303L889.3 148L780.7 240Z" fill="#202020" stroke="#202020"></path><path d="M868.3 456L772.7 398L762.7 477Z" fill="#202020" stroke="#202020"></path><path d="M870.3 303L960 257L889.3 148Z" fill="#1b1b1b" stroke="#1b1b1b"></path><path d="M0 182L0 259L145.7 179Z" fill="#000000" stroke="#000000"></path><path d="M0 113L145.7 179L89.7 57Z" fill="#151515" stroke="#151515"></path><path d="M0 113L0 182L145.7 179Z" fill="#232323" stroke="#232323"></path><path d="M854.3 540L868.3 456L762.7 477Z" fill="#050505" stroke="#050505"></path><path d="M960 343L960 257L870.3 303Z" fill="#000000" stroke="#000000"></path><path d="M0 0L0 113L89.7 57Z" fill="#121212" stroke="#121212"></path><path d="M960 0L880.3 0L860.3 87Z" fill="#1b1b1b" stroke="#1b1b1b"></path><path d="M860.3 87L880.3 0L709.7 0Z" fill="#0a0a0a" stroke="#0a0a0a"></path><path d="M0 259L0 364L131.7 291Z" fill="#1d1d1d" stroke="#1d1d1d"></path><path d="M95.7 442L87.7 540L184.3 540Z" fill="#1d1d1d" stroke="#1d1d1d"></path><path d="M0 452L87.7 540L95.7 442Z" fill="#121212" stroke="#121212"></path><path d="M960 343L870.3 303L866.3 391Z" fill="#121212" stroke="#121212"></path><path d="M889.3 148L960 114L860.3 87Z" fill="#050505" stroke="#050505"></path><path d="M960 257L960 195L889.3 148Z" fill="#000000" stroke="#000000"></path><path d="M758.7 540L854.3 540L762.7 477Z" fill="#1b1b1b" stroke="#1b1b1b"></path><path d="M960 455L960 343L866.3 391Z" fill="#151515" stroke="#151515"></path><path d="M0 364L0 452L95.7 442Z" fill="#181818" stroke="#181818"></path><path d="M119.7 0L0 0L89.7 57Z" fill="#151515" stroke="#151515"></path><path d="M960 195L960 114L889.3 148Z" fill="#121212" stroke="#121212"></path><path d="M960 455L866.3 391L868.3 456Z" fill="#1b1b1b" stroke="#1b1b1b"></path><path d="M960 114L960 0L860.3 87Z" fill="#151515" stroke="#151515"></path><path d="M960 540L960 455L868.3 456Z" fill="#050505" stroke="#050505"></path><path d="M0 452L0 540L87.7 540Z" fill="#181818" stroke="#181818"></path><path d="M854.3 540L960 540L868.3 456Z" fill="#050505" stroke="#050505"></path></g></svg>