<svg id="visual" viewBox="0 0 900 600" width="900" height="600" xmlns="http://www.w3.org/2000/svg" xmlns:xlink="http://www.w3.org/1999/xlink" version="1.1"><g stroke-width="1" stroke-linejoin="bevel"><path d="M461 321L413 418L466 373Z" fill="#a2a2a2" stroke="#a2a2a2"></path><path d="M461 321L408 274L413 418Z" fill="#3b3b3b" stroke="#3b3b3b"></path><path d="M408 274L312 414L413 418Z" fill="#cfcfcf" stroke="#cfcfcf"></path><path d="M408 274L310 274L312 414Z" fill="#626262" stroke="#626262"></path><path d="M491 230L431 225L408 274Z" fill="#ffffff" stroke="#ffffff"></path><path d="M408 274L306 196L310 274Z" fill="#3b3b3b" stroke="#3b3b3b"></path><path d="M604 290L491 230L461 321Z" fill="#ffffff" stroke="#ffffff"></path><path d="M461 321L491 230L408 274Z" fill="#cfcfcf" stroke="#cfcfcf"></path><path d="M312 414L364 520L413 418Z" fill="#626262" stroke="#626262"></path><path d="M413 418L505 500L466 373Z" fill="#cfcfcf" stroke="#cfcfcf"></path><path d="M364 520L505 500L413 418Z" fill="#a2a2a2" stroke="#a2a2a2"></path><path d="M466 373L604 290L461 321Z" fill="#3b3b3b" stroke="#3b3b3b"></path><path d="M431 225L306 196L408 274Z" fill="#e7e7e7" stroke="#e7e7e7"></path><path d="M162 374L275 498L312 414Z" fill="#777777" stroke="#777777"></path><path d="M433 108L306 196L431 225Z" fill="#292929" stroke="#292929"></path><path d="M312 414L275 498L364 520Z" fill="#ffffff" stroke="#ffffff"></path><path d="M209 286L312 414L310 274Z" fill="#a2a2a2" stroke="#a2a2a2"></path><path d="M227 235L209 286L310 274Z" fill="#8c8c8c" stroke="#8c8c8c"></path><path d="M505 500L600 426L466 373Z" fill="#b8b8b8" stroke="#b8b8b8"></path><path d="M600 426L604 290L466 373Z" fill="#ffffff" stroke="#ffffff"></path><path d="M306 196L227 235L310 274Z" fill="#ffffff" stroke="#ffffff"></path><path d="M505 500L611 471L600 426Z" fill="#626262" stroke="#626262"></path><path d="M600 426L672 422L604 290Z" fill="#292929" stroke="#292929"></path><path d="M604 290L571 180L491 230Z" fill="#8c8c8c" stroke="#8c8c8c"></path><path d="M491 230L433 108L431 225Z" fill="#b8b8b8" stroke="#b8b8b8"></path><path d="M81 272L162 374L209 286Z" fill="#b8b8b8" stroke="#b8b8b8"></path><path d="M209 286L162 374L312 414Z" fill="#cfcfcf" stroke="#cfcfcf"></path><path d="M571 180L433 108L491 230Z" fill="#a2a2a2" stroke="#a2a2a2"></path><path d="M306 196L292 102L227 235Z" fill="#ffffff" stroke="#ffffff"></path><path d="M279 600L375 600L364 520Z" fill="#626262" stroke="#626262"></path><path d="M364 520L500 600L505 500Z" fill="#ffffff" stroke="#ffffff"></path><path d="M505 500L633 600L611 471Z" fill="#ffffff" stroke="#ffffff"></path><path d="M375 600L500 600L364 520Z" fill="#4e4e4e" stroke="#4e4e4e"></path><path d="M433 108L292 102L306 196Z" fill="#b8b8b8" stroke="#b8b8b8"></path><path d="M220 600L279 600L275 498Z" fill="#cfcfcf" stroke="#cfcfcf"></path><path d="M275 498L279 600L364 520Z" fill="#b8b8b8" stroke="#b8b8b8"></path><path d="M710 520L672 422L611 471Z" fill="#4e4e4e" stroke="#4e4e4e"></path><path d="M611 471L672 422L600 426Z" fill="#4e4e4e" stroke="#4e4e4e"></path><path d="M604 290L664 212L571 180Z" fill="#8c8c8c" stroke="#8c8c8c"></path><path d="M571 180L478 73L433 108Z" fill="#ffffff" stroke="#ffffff"></path><path d="M433 108L436 0L292 102Z" fill="#626262" stroke="#626262"></path><path d="M162 374L169 525L275 498Z" fill="#292929" stroke="#292929"></path><path d="M706 292L664 212L604 290Z" fill="#4e4e4e" stroke="#4e4e4e"></path><path d="M571 180L566 79L478 73Z" fill="#e7e7e7" stroke="#e7e7e7"></path><path d="M169 525L220 600L275 498Z" fill="#e7e7e7" stroke="#e7e7e7"></path><path d="M672 422L706 292L604 290Z" fill="#b8b8b8" stroke="#b8b8b8"></path><path d="M221 64L123 210L227 235Z" fill="#b8b8b8" stroke="#b8b8b8"></path><path d="M227 235L123 210L209 286Z" fill="#3b3b3b" stroke="#3b3b3b"></path><path d="M162 374L96 502L169 525Z" fill="#626262" stroke="#626262"></path><path d="M664 212L566 79L571 180Z" fill="#cfcfcf" stroke="#cfcfcf"></path><path d="M123 210L81 272L209 286Z" fill="#cfcfcf" stroke="#cfcfcf"></path><path d="M500 600L633 600L505 500Z" fill="#8c8c8c" stroke="#8c8c8c"></path><path d="M672 422L799 360L706 292Z" fill="#626262" stroke="#626262"></path><path d="M81 272L72 423L162 374Z" fill="#cfcfcf" stroke="#cfcfcf"></path><path d="M169 525L113 600L220 600Z" fill="#b8b8b8" stroke="#b8b8b8"></path><path d="M278 0L221 64L292 102Z" fill="#b8b8b8" stroke="#b8b8b8"></path><path d="M292 102L221 64L227 235Z" fill="#ffffff" stroke="#ffffff"></path><path d="M0 207L0 267L81 272Z" fill="#777777" stroke="#777777"></path><path d="M72 423L96 502L162 374Z" fill="#3b3b3b" stroke="#3b3b3b"></path><path d="M633 600L710 520L611 471Z" fill="#3b3b3b" stroke="#3b3b3b"></path><path d="M469 0L436 0L478 73Z" fill="#4e4e4e" stroke="#4e4e4e"></path><path d="M478 73L436 0L433 108Z" fill="#292929" stroke="#292929"></path><path d="M571 0L469 0L478 73Z" fill="#3b3b3b" stroke="#3b3b3b"></path><path d="M436 0L278 0L292 102Z" fill="#292929" stroke="#292929"></path><path d="M96 502L113 600L169 525Z" fill="#777777" stroke="#777777"></path><path d="M0 600L113 600L96 502Z" fill="#777777" stroke="#777777"></path><path d="M633 600L702 600L710 520Z" fill="#777777" stroke="#777777"></path><path d="M236 0L130 77L221 64Z" fill="#8c8c8c" stroke="#8c8c8c"></path><path d="M221 64L130 77L123 210Z" fill="#626262" stroke="#626262"></path><path d="M278 0L236 0L221 64Z" fill="#8c8c8c" stroke="#8c8c8c"></path><path d="M721 84L566 79L664 212Z" fill="#3b3b3b" stroke="#3b3b3b"></path><path d="M693 0L571 0L566 79Z" fill="#292929" stroke="#292929"></path><path d="M566 79L571 0L478 73Z" fill="#777777" stroke="#777777"></path><path d="M794 466L799 360L672 422Z" fill="#777777" stroke="#777777"></path><path d="M706 292L776 204L664 212Z" fill="#292929" stroke="#292929"></path><path d="M794 466L672 422L710 520Z" fill="#626262" stroke="#626262"></path><path d="M799 360L802 332L706 292Z" fill="#b8b8b8" stroke="#b8b8b8"></path><path d="M802 332L776 204L706 292Z" fill="#777777" stroke="#777777"></path><path d="M81 272L0 367L72 423Z" fill="#626262" stroke="#626262"></path><path d="M72 423L0 483L96 502Z" fill="#292929" stroke="#292929"></path><path d="M0 267L0 367L81 272Z" fill="#626262" stroke="#626262"></path><path d="M828 600L794 466L710 520Z" fill="#8c8c8c" stroke="#8c8c8c"></path><path d="M799 360L900 366L802 332Z" fill="#a2a2a2" stroke="#a2a2a2"></path><path d="M0 207L81 272L123 210Z" fill="#cfcfcf" stroke="#cfcfcf"></path><path d="M776 204L721 84L664 212Z" fill="#8c8c8c" stroke="#8c8c8c"></path><path d="M0 367L0 483L72 423Z" fill="#3b3b3b" stroke="#3b3b3b"></path><path d="M0 105L0 207L123 210Z" fill="#8c8c8c" stroke="#8c8c8c"></path><path d="M761 67L693 0L721 84Z" fill="#777777" stroke="#777777"></path><path d="M721 84L693 0L566 79Z" fill="#8c8c8c" stroke="#8c8c8c"></path><path d="M900 106L761 67L776 204Z" fill="#8c8c8c" stroke="#8c8c8c"></path><path d="M776 204L761 67L721 84Z" fill="#b8b8b8" stroke="#b8b8b8"></path><path d="M0 483L0 600L96 502Z" fill="#e7e7e7" stroke="#e7e7e7"></path><path d="M130 77L0 105L123 210Z" fill="#a2a2a2" stroke="#a2a2a2"></path><path d="M68 0L0 105L130 77Z" fill="#b8b8b8" stroke="#b8b8b8"></path><path d="M236 0L68 0L130 77Z" fill="#292929" stroke="#292929"></path><path d="M702 600L828 600L710 520Z" fill="#777777" stroke="#777777"></path><path d="M794 466L900 366L799 360Z" fill="#626262" stroke="#626262"></path><path d="M900 488L900 366L794 466Z" fill="#cfcfcf" stroke="#cfcfcf"></path><path d="M802 332L900 265L776 204Z" fill="#e7e7e7" stroke="#e7e7e7"></path><path d="M900 366L900 265L802 332Z" fill="#292929" stroke="#292929"></path><path d="M900 265L900 220L776 204Z" fill="#8c8c8c" stroke="#8c8c8c"></path><path d="M828 600L900 488L794 466Z" fill="#8c8c8c" stroke="#8c8c8c"></path><path d="M900 106L803 0L761 67Z" fill="#cfcfcf" stroke="#cfcfcf"></path><path d="M761 67L803 0L693 0Z" fill="#777777" stroke="#777777"></path><path d="M68 0L0 0L0 105Z" fill="#4e4e4e" stroke="#4e4e4e"></path><path d="M900 220L900 106L776 204Z" fill="#777777" stroke="#777777"></path><path d="M828 600L900 600L900 488Z" fill="#626262" stroke="#626262"></path><path d="M900 106L900 0L803 0Z" fill="#3b3b3b" stroke="#3b3b3b"></path></g></svg>